<svg width="28" height="32" viewBox="0 0 28 32" fill="none" xmlns="http://www.w3.org/2000/svg">
<g id="Group 3">
<path id="Vector" d="M3.74118 1.93912C3.74118 1.14703 3.12492 0.5 2.37059 0.5C1.61625 0.5 1 1.14707 1 1.93912C1 2.56387 1.37187 3.08825 1.90313 3.28899V5.61855H2.91254V3.25533C3.40129 3.04336 3.74118 2.53037 3.74118 1.93912Z" fill="#28353D"/>
<g id="Vector_2">
<mask id="path-2-inside-1_174_33" fill="white">
<path d="M2 22.55V8.90002H3V22.55H2Z"/>
</mask>
<path d="M2 8.90002V7.90002H1V8.90002H2ZM2 22.55H1V23.55H2V22.55ZM3 22.55V23.55H4V22.55H3ZM3 8.90002H4V7.90002H3V8.90002ZM1 8.90002V22.55H3V8.90002H1ZM2 23.55H3V21.55H2V23.55ZM4 22.55V8.90002H2V22.55H4ZM3 7.90002H2V9.90002H3V7.90002Z" fill="#28353D" mask="url(#path-2-inside-1_174_33)"/>
</g>
<g id="Vector_3">
<mask id="path-4-inside-2_174_33" fill="white">
<path d="M2 32V25.7H3V32H2Z"/>
</mask>
<path d="M2 25.7V24.7H1V25.7H2ZM2 32H1V33H2V32ZM3 32V33H4V32H3ZM3 25.7H4V24.7H3V25.7ZM1 25.7V32H3V25.7H1ZM2 33H3V31H2V33ZM4 32V25.7H2V32H4ZM3 24.7H2V26.7H3V24.7Z" fill="#28353D" mask="url(#path-4-inside-2_174_33)"/>
</g>
<path id="Union" fill-rule="evenodd" clip-rule="evenodd" d="M0 6.79999H5H6H26.775H28L27.2926 7.84999L22.3728 15.1527L27.3778 23.6L28 24.65H26.8223H6H5H0V23.6H5V7.84999H0V6.79999ZM21.173 15.1154L21.5564 14.5463L26.0676 7.84999H6V23.6H26.2001L21.5237 15.7073L21.173 15.1154Z" fill="#28353D"/>
</g>
</svg>
