<svg width="33" height="32" viewBox="0 0 33 32" fill="none" xmlns="http://www.w3.org/2000/svg">
<g id="Icon / Hamburger">
<path id="Icon" fill-rule="evenodd" clip-rule="evenodd" d="M2.5 5.5C2.5 5.10218 2.65804 4.72064 2.93934 4.43934C3.22064 4.15804 3.60218 4 4 4H29C29.3978 4 29.7794 4.15804 30.0606 4.43934C30.342 4.72064 30.5 5.10218 30.5 5.5C30.5 5.89782 30.342 6.27936 30.0606 6.56066C29.7794 6.84196 29.3978 7 29 7H4C3.60218 7 3.22064 6.84196 2.93934 6.56066C2.65804 6.27936 2.5 5.89782 2.5 5.5ZM2.5 15.5C2.5 15.1022 2.65804 14.7206 2.93934 14.4393C3.22064 14.158 3.60218 14 4 14H29C29.3978 14 29.7794 14.158 30.0606 14.4393C30.342 14.7206 30.5 15.1022 30.5 15.5C30.5 15.8978 30.342 16.2794 30.0606 16.5607C29.7794 16.842 29.3978 17 29 17H4C3.60218 17 3.22064 16.842 2.93934 16.5607C2.65804 16.2794 2.5 15.8978 2.5 15.5ZM4 24C3.60218 24 3.22064 24.158 2.93934 24.4394C2.65804 24.7206 2.5 25.1022 2.5 25.5C2.5 25.8978 2.65804 26.2794 2.93934 26.5606C3.22064 26.842 3.60218 27 4 27H29C29.3978 27 29.7794 26.842 30.0606 26.5606C30.342 26.2794 30.5 25.8978 30.5 25.5C30.5 25.1022 30.342 24.7206 30.0606 24.4394C29.7794 24.158 29.3978 24 29 24H4Z" fill="#28353D"/>
</g>
</svg>
