<svg width="24" height="24" viewBox="0 0 24 24" fill="none" xmlns="http://www.w3.org/2000/svg">
<path id="Vector" d="M14.5202 23.4542H21.5197L21.52 23.4544C21.7961 23.4544 22.02 23.2397 22.0207 22.9781V11.0459H23.5007C23.7088 11.0459 23.8968 10.9238 23.9688 10.7377C24.0407 10.5515 23.9858 10.3425 23.8298 10.2108L20.0201 7.012L15.0204 2.88368L12.3376 0.662567C12.1485 0.505961 11.8695 0.506918 11.6815 0.662567L0.172045 10.208C0.0150241 10.3378 -0.0418938 10.5487 0.032099 10.7349C0.104253 10.9219 0.291241 11.0451 0.500157 11.0451H2.02098V22.9772C2.02098 23.2398 2.24497 23.4546 2.52101 23.4546H9.52046C9.7965 23.4546 10.0205 23.2398 10.0205 22.9772V16.7724H14.0202V22.9768C14.0202 23.2394 14.2442 23.4542 14.5202 23.4542Z" fill="#2F80ED"/>
</svg>
