<svg width="35" height="28" viewBox="0 0 35 28" fill="none" xmlns="http://www.w3.org/2000/svg">
<path id="Vector" d="M4.51257 12.1287C4.51257 18.3268 4.51257 27 4.51257 27H30.6214C30.6214 27 30.6214 18.3268 30.6214 12.1287M13.5502 26.488V17.2724H21.5837V26.488M33.5 9.36847H1.5C1.5 10.6648 2.33568 11.776 3.52394 12.2457C3.86892 12.4425 4.85548 12.7165 6.04199 12.2384C6.98716 11.8632 7.71094 11.087 7.96586 10.1274C8.32497 11.4799 9.60572 12.4851 11.1437 12.4851C12.0612 12.4851 12.8818 12.1222 13.4752 11.5465L14.5544 10.1047C14.5766 10.3592 14.4472 10.7497 14.7776 11.0956C15.6073 11.9641 16.3603 12.485 17.5004 12.485C19.0381 12.485 20.3188 11.4798 20.6782 10.1273C21.0376 11.4798 22.3184 12.485 23.8561 12.485C25.3938 12.485 26.6748 11.4798 27.0339 10.1273C27.2888 11.0863 28.012 11.8631 28.9578 12.238C29.245 12.4427 30.1506 12.7311 31.4756 12.2464C32.6651 11.7764 33.5 10.6651 33.5 9.36847ZM1.5 8.88589L4.45666 3.1638C5.14338 1.83476 6.51432 1 8.0103 1H26.9901C28.4862 1 29.8572 1.83486 30.5439 3.16402L33.5 8.88589H1.5Z" stroke="#28353D"/>
</svg>
