<svg width="24" height="26" viewBox="0 0 24 26" fill="none" xmlns="http://www.w3.org/2000/svg">
<g id="vuesax/twotone/notification">
<g id="notification">
<path id="Vector" d="M14.8847 21C15.2066 22.6183 14.1459 24.2058 12.5277 24.5277C11.7234 24.6877 10.9117 24.5025 10.2767 24.0782C9.64173 23.654 9.15998 22.9749 9 22.1707" fill="#28353D"/>
<path id="Vector_2" d="M9.66658 3.21333C6.46937 4.07002 4.56725 7.36458 5.42394 10.5618L6.17193 13.3533C6.32981 13.9425 6.31937 14.9081 6.15452 15.4907L5.53805 17.6332C5.15765 18.9568 5.97 20.0953 7.33959 20.1839C11.8754 20.4593 16.367 19.2558 20.1574 16.7493C21.2227 16.0498 21.3645 14.5313 20.4423 13.6396L18.8371 12.0924C18.4128 11.6677 17.9209 10.8367 17.763 10.2475L17.0151 7.45597C16.1609 4.26841 12.8541 2.35922 9.66658 3.21333Z" fill="#28353D"/>
<path id="Vector_3" d="M11.5285 3.01469C11.2057 3.00799 10.8785 3.02319 10.5494 3.06997C9.59106 3.20252 8.72052 3.50825 7.95453 3.97232C8.04312 3.18247 8.604 2.49384 9.41538 2.27643C10.2268 2.05903 11.0568 2.37496 11.5285 3.01469Z" stroke="#28353D" stroke-width="1.5" stroke-miterlimit="10" stroke-linecap="round" stroke-linejoin="round"/>
</g>
</g>
</svg>
