<svg width="14" height="14" viewBox="0 0 14 14" fill="none" xmlns="http://www.w3.org/2000/svg">
<g id="Vector">
<path fill-rule="evenodd" clip-rule="evenodd" d="M0.75 6.5C0.55109 6.5 0.36032 6.579 0.21967 6.7197C0.0790201 6.8603 0 7.0511 0 7.25C0 7.4489 0.0790201 7.6397 0.21967 7.7803C0.36032 7.921 0.55109 8 0.75 8H13.25C13.4489 8 13.6397 7.921 13.7803 7.7803C13.921 7.6397 14 7.4489 14 7.25C14 7.0511 13.921 6.8603 13.7803 6.7197C13.6397 6.579 13.4489 6.5 13.25 6.5H0.75Z" fill="#28353D"/>
<path d="M7.78033 0.21967C7.63968 0.0790201 7.44891 8.69463e-09 7.25 0C7.05109 -8.69463e-09 6.86032 0.07902 6.71967 0.21967C6.57902 0.36032 6.5 0.55109 6.5 0.75V13.25C6.5 13.4489 6.57902 13.6397 6.71967 13.7803C6.86032 13.921 7.05109 14 7.25 14C7.44891 14 7.63968 13.921 7.78033 13.7803C7.92098 13.6397 8 13.4489 8 13.25L8 0.75C8 0.55109 7.92098 0.36032 7.78033 0.21967Z" fill="#28353D"/>
</g>
</svg>
